<svg width="80" height="80" viewBox="0 0 80 80" fill="none" xmlns="http://www.w3.org/2000/svg">
<rect width="80" height="80" rx="40" fill="#219653"/>
<path d="M47.5 40.0002C47.5 38.8668 47.4 37.7668 47.2667 36.6668H52.9C53.1667 37.7335 53.3333 38.8502 53.3333 40.0002C53.3333 40.6168 53.2833 41.2168 53.2 41.8002C54.35 41.9668 55.4167 42.3335 56.4 42.8668C56.5667 41.9335 56.6667 40.9835 56.6667 40.0002C56.6667 30.8335 49.1667 23.3335 40 23.3335C30.7833 23.3335 23.3333 30.8335 23.3333 40.0002C23.3333 49.1668 30.8333 56.6668 40 56.6668C40.9833 56.6668 41.9333 56.5668 42.8667 56.4002C42.0751 54.9484 41.6623 53.3204 41.6667 51.6668C41.6667 51.1835 41.7167 50.7168 41.7833 50.2502C41.25 51.3002 40.6667 52.3168 40 53.2668C38.6167 51.2668 37.5 49.0502 36.8167 46.6668H43.0167C44.0177 44.9274 45.5229 43.5327 47.3333 42.6668C47.4333 41.7835 47.5 40.9002 47.5 40.0002ZM40 26.7168C41.3833 28.7168 42.5 30.9502 43.1833 33.3335H36.8167C37.5 30.9502 38.6167 28.7168 40 26.7168ZM27.1 43.3335C26.8333 42.2668 26.6667 41.1502 26.6667 40.0002C26.6667 38.8502 26.8333 37.7335 27.1 36.6668H32.7333C32.6 37.7668 32.5 38.8668 32.5 40.0002C32.5 41.1335 32.6 42.2335 32.7333 43.3335H27.1ZM28.4667 46.6668H33.3333C33.9167 48.7502 34.6667 50.7502 35.6667 52.6002C32.6311 51.5529 30.0748 49.4464 28.4667 46.6668ZM33.3333 33.3335H28.4667C30.0648 30.5455 32.6247 28.436 35.6667 27.4002C34.6667 29.2502 33.9167 31.2502 33.3333 33.3335ZM43.9 43.3335H36.1C35.9333 42.2335 35.8333 41.1335 35.8333 40.0002C35.8333 38.8668 35.9333 37.7502 36.1 36.6668H43.9C44.05 37.7502 44.1667 38.8668 44.1667 40.0002C44.1667 41.1335 44.05 42.2335 43.9 43.3335ZM44.3167 27.4002C47.3833 28.4502 49.9333 30.5668 51.5333 33.3335H46.6167C46.095 31.2693 45.3226 29.2767 44.3167 27.4002ZM57.5 48.7502L49.5833 56.6668L45 51.6668L46.9333 49.7335L49.5833 52.3835L55.5667 46.4002L57.5 48.7502Z" fill="white"/>
</svg>
