<svg width="80" height="80" viewBox="0 0 80 80" fill="none" xmlns="http://www.w3.org/2000/svg">
<rect width="80" height="80" rx="40" fill="#219653"/>
<path d="M31.25 28.75C31.9404 28.75 32.5 28.1904 32.5 27.5C32.5 26.8096 31.9404 26.25 31.25 26.25C30.5596 26.25 30 26.8096 30 27.5C30 28.1904 30.5596 28.75 31.25 28.75Z" fill="white"/>
<path d="M52.5 32.5H27.5C26.8372 32.4993 26.2017 32.2357 25.733 31.767C25.2643 31.2983 25.0007 30.6628 25 30V25C25.0007 24.3372 25.2643 23.7017 25.733 23.233C26.2017 22.7643 26.8372 22.5007 27.5 22.5H52.5C53.1628 22.5007 53.7983 22.7643 54.267 23.233C54.7357 23.7017 54.9993 24.3372 55 25V30C54.9993 30.6628 54.7357 31.2983 54.267 31.767C53.7983 32.2357 53.1628 32.4993 52.5 32.5ZM27.5 25V30H52.5V25H27.5Z" fill="white"/>
<path d="M31.25 41.25C31.9404 41.25 32.5 40.6904 32.5 40C32.5 39.3096 31.9404 38.75 31.25 38.75C30.5596 38.75 30 39.3096 30 40C30 40.6904 30.5596 41.25 31.25 41.25Z" fill="white"/>
<path d="M52.5 45H27.5C26.8372 44.9993 26.2017 44.7357 25.733 44.267C25.2643 43.7983 25.0007 43.1628 25 42.5V37.5C25.0007 36.8372 25.2643 36.2017 25.733 35.733C26.2017 35.2643 26.8372 35.0007 27.5 35H52.5C53.1628 35.0007 53.7983 35.2643 54.267 35.733C54.7357 36.2017 54.9993 36.8372 55 37.5V42.5C54.9993 43.1628 54.7357 43.7983 54.267 44.267C53.7983 44.7357 53.1628 44.9993 52.5 45ZM27.5 37.5V42.5H52.5V37.5H27.5Z" fill="white"/>
<path d="M31.25 53.75C31.9404 53.75 32.5 53.1904 32.5 52.5C32.5 51.8096 31.9404 51.25 31.25 51.25C30.5596 51.25 30 51.8096 30 52.5C30 53.1904 30.5596 53.75 31.25 53.75Z" fill="white"/>
<path d="M52.5 57.5H27.5C26.8372 57.4993 26.2017 57.2357 25.733 56.767C25.2643 56.2983 25.0007 55.6628 25 55V50C25.0007 49.3372 25.2643 48.7017 25.733 48.233C26.2017 47.7643 26.8372 47.5007 27.5 47.5H52.5C53.1628 47.5007 53.7983 47.7643 54.267 48.233C54.7357 48.7017 54.9993 49.3372 55 50V55C54.9993 55.6628 54.7357 56.2983 54.267 56.767C53.7983 57.2357 53.1628 57.4993 52.5 57.5ZM27.5 50V55H52.5V50H27.5Z" fill="white"/>
</svg>
